HIERARCHY
ROOT Hips
{
	OFFSET 0.00000 0.00000 0.00000
	CHANNELS 6 Xposition Yposition Zposition Zrotation Yrotation Xrotation 
	JOINT LHipJoint
	{
		OFFSET 0 0 0
		CHANNELS 3 Zrotation Yrotation Xrotation
		JOINT LeftUpLeg
		{
			OFFSET 1.56857 -1.73443 1.15205
			CHANNELS 3 Zrotation Yrotation Xrotation
			JOINT LeftLeg
			{
				OFFSET 2.39362 -6.57643 0.00000
				CHANNELS 3 Zrotation Yrotation Xrotation
				JOINT LeftFoot
				{
					OFFSET 2.50952 -6.89485 0.00000
					CHANNELS 3 Zrotation Yrotation Xrotation
					JOINT LeftToeBase
					{
						OFFSET 0.17171 -0.47178 1.88682
						CHANNELS 3 Zrotation Yrotation Xrotation
						End Site
						{
							OFFSET 0.00000 -0.00000 0.98146
						}
					}
				}
			}
		}
	}
	JOINT RHipJoint
	{
		OFFSET 0 0 0
		CHANNELS 3 Zrotation Yrotation Xrotation
		JOINT RightUpLeg
		{
			OFFSET -1.28153 -1.73443 1.15205
			CHANNELS 3 Zrotation Yrotation Xrotation
			JOINT RightLeg
			{
				OFFSET -2.26861 -6.23296 0.00000
				CHANNELS 3 Zrotation Yrotation Xrotation
				JOINT RightFoot
				{
					OFFSET -2.54143 -6.98254 0.00000
					CHANNELS 3 Zrotation Yrotation Xrotation
					JOINT RightToeBase
					{
						OFFSET -0.23309 -0.64041 1.93119
						CHANNELS 3 Zrotation Yrotation Xrotation
						End Site
						{
							OFFSET -0.00000 -0.00000 1.02013
						}
					}
				}
			}
		}
	}
	JOINT LowerBack
	{
		OFFSET 0 0 0
		CHANNELS 3 Zrotation Yrotation Xrotation
		JOINT Spine
		{
			OFFSET -0.07096 2.10460 -0.27878
			CHANNELS 3 Zrotation Yrotation Xrotation
			JOINT Spine1
			{
				OFFSET -0.00826 2.13662 -0.08279
				CHANNELS 3 Zrotation Yrotation Xrotation
				JOINT Neck
				{
					OFFSET 0 0 0
					CHANNELS 3 Zrotation Yrotation Xrotation
					JOINT Neck1
					{
						OFFSET 0.03239 1.77799 0.24435
						CHANNELS 3 Zrotation Yrotation Xrotation
						JOINT Head
						{
							OFFSET 0.01026 1.74194 -0.49664
							CHANNELS 3 Zrotation Yrotation Xrotation
							End Site
							{
								OFFSET 0.00170 1.83057 -0.19653
							}
						}
					}
				}
				JOINT LeftShoulder
				{
					OFFSET 0 0 0
					CHANNELS 3 Zrotation Yrotation Xrotation
					JOINT LeftArm
					{
						OFFSET 3.19178 1.35907 -0.31412
						CHANNELS 3 Zrotation Yrotation Xrotation
						JOINT LeftForeArm
						{
							OFFSET 4.85247 -0.00000 -0.00000
							CHANNELS 3 Zrotation Yrotation Xrotation
							JOINT LeftHand
							{
								OFFSET 3.55584 -0.00000 0.00000
								CHANNELS 3 Zrotation Yrotation Xrotation
								JOINT LeftFingerBase
								{
									OFFSET 0 0 0
									CHANNELS 3 Zrotation Yrotation Xrotation
									JOINT LeftHandIndex1
									{
										OFFSET 0.69320 -0.00000 0.00000
										CHANNELS 3 Zrotation Yrotation Xrotation
										End Site
										{
											OFFSET 0.55888 -0.00000 0.00000
										}
									}
								}
								JOINT LThumb
								{
									OFFSET 0 0 0
									CHANNELS 3 Zrotation Yrotation Xrotation
									End Site
									{
										OFFSET 0.56741 -0.00000 0.56741
									}
								}
							}
						}
					}
				}
				JOINT RightShoulder
				{
					OFFSET 0 0 0
					CHANNELS 3 Zrotation Yrotation Xrotation
					JOINT RightArm
					{
						OFFSET -3.28999 1.24191 -0.26899
						CHANNELS 3 Zrotation Yrotation Xrotation
						JOINT RightForeArm
						{
							OFFSET -4.64462 -0.00000 0.00000
							CHANNELS 3 Zrotation Yrotation Xrotation
							JOINT RightHand
							{
								OFFSET -3.40703 -0.00000 0.00000
								CHANNELS 3 Zrotation Yrotation Xrotation
								JOINT RightFingerBase
								{
									OFFSET 0 0 0
									CHANNELS 3 Zrotation Yrotation Xrotation
									JOINT RightHandIndex1
									{
										OFFSET -0.61958 -0.00000 0.00000
										CHANNELS 3 Zrotation Yrotation Xrotation
										End Site
										{
											OFFSET -0.49952 -0.00000 0.00000
										}
									}
								}
								JOINT RThumb
								{
									OFFSET 0 0 0
									CHANNELS 3 Zrotation Yrotation Xrotation
									End Site
									{
										OFFSET -0.50715 -0.00000 0.50715
									}
								}
							}
						}
					}
				}
			}
		}
	}
}
MOTION
Frames: 16
Frame Time: .0083333
-30.313 17.0966 0.8756 0 0 0 0 0 0 -21 0 0 0 0 0 0 0 0 0 0 0 0 0 0 21 0 0 0 0 0 0 0 0 0 0 0 0 0 0 0 0 0 0 0 0 0 0 -16 0 0 21 0 0 11 0 0 0 -8 0 0 0 0 0 0 0 0 0 0 0 0 0 0 0 0 0 0 0 0 8 0 0 0 0 0 0 0 0 0 0 0 0 0 0 0 0 0
-30.3130 17.0966 0.8756 31.2053 85.9920 29.5884 0.0000 0.0000 0.0000 -17.5788 2.6634 10.5279 0.0011 0.2157 0.5926 0.3443 5.6734 -14.6191 0.2857 -3.4374 -9.4989 0.0000 0.0000 0.0000 12.8143 -4.7850 5.9684 -0.0771 -1.7907 4.9275 -0.7659 2.3314 -15.9075 -0.5160 -4.6042 12.7831 -4.6388 1.9409 5.7427 -0.3444 2.3178 1.0591 2.0653 1.1980 -2.2945 3.0713 1.8292 -20.8368 -0.6271 1.9854 25.3168 -0.4097 1.2061 11.7956 -0.0000 0.0000 0.0000 -87.5317 0.2897 40.1629 11.7521 -19.4318 -2.0191 -0.0000 -0.0000 16.7673 19.2337 -26.5391 -8.8605 -7.1250 0.0000 -0.0000 -6.4261 2.2553 6.2079 -0.0000 0.0000 0.0000 87.2139 -4.0823 36.0099 -16.2629 25.8758 -3.7600 0.0000 0.0000 4.7659 -11.6553 -31.3653 6.1281 7.1250 -0.0000 -0.0000 23.2728 -60.3479 -8.9977
-30.3116 17.0969 0.8756 31.3119 85.9758 29.6770 0.0000 0.0000 0.0000 -17.6158 2.6140 10.5818 0.0011 0.2093 0.5752 0.3371 5.7439 -14.5792 0.2828 -3.4203 -9.4510 0.0000 0.0000 0.0000 12.8007 -4.7910 5.9884 -0.0768 -1.7873 4.9182 -0.7644 2.3158 -15.8948 -0.5212 -4.6271 12.8479 -4.6216 1.9486 5.7358 -0.3814 2.3290 1.0609 2.0169 1.2033 -2.2872 3.0826 1.8399 -20.9070 -0.5672 1.9798 25.4146 -0.3891 1.2140 11.8468 -0.0000 -0.0000 0.0000 -87.4768 0.2918 40.1454 11.7332 -19.4033 -2.0128 -0.0000 -0.0000 16.7383 17.9242 -26.9221 -8.3320 -7.1250 0.0000 -0.0000 -7.2480 2.0855 7.0365 -0.0000 -0.0000 0.0000 87.2975 -4.0726 35.9224 -16.2681 25.8828 -3.7622 0.0000 0.0000 4.8590 -11.4706 -31.6221 6.0730 7.1250 -0.0000 -0.0000 23.6834 -60.5369 -9.2744
-30.3093 17.0950 0.8762 29.7267 85.9643 28.1183 0.0000 0.0000 0.0000 -17.5311 2.5585 10.6165 0.0009 0.1950 0.5359 0.3267 5.8355 -14.5113 0.2604 -3.2828 -9.0671 0.0000 0.0000 0.0000 12.9098 -4.8028 5.9324 -0.0775 -1.7961 4.9425 -0.7669 2.4341 -15.8984 -0.5193 -4.6188 12.8243 -4.5556 1.9804 5.6904 -0.3500 2.3777 1.0524 2.0097 1.2267 -2.2728 3.0637 1.8413 -20.9919 -0.5153 1.9716 25.4908 -0.3669 1.2160 11.8922 0.0000 -0.0000 0.0000 -87.5625 0.2405 39.7982 11.6433 -19.2675 -1.9830 -0.0000 -0.0000 17.0549 17.7847 -27.0768 -8.3071 -7.1250 0.0000 -0.0000 -7.3458 1.9516 7.1510 0.0000 -0.0000 0.0000 87.2942 -4.0904 35.7573 -16.2615 25.8740 -3.7594 0.0000 0.0000 4.9814 -11.1356 -31.8912 5.9369 7.1250 -0.0000 -0.0000 24.2661 -60.7001 -9.6133
-30.3076 17.0955 0.8777 27.0038 86.0214 25.3370 0.0000 0.0000 0.0000 -17.2738 2.5690 10.7288 0.0007 0.1742 0.4787 0.3291 5.8472 -14.5561 0.2379 -3.1389 -8.6656 0.0000 0.0000 0.0000 13.1639 -4.7802 6.0221 -0.0768 -1.7882 4.9208 -0.7696 2.4212 -15.9300 -0.4713 -4.4031 12.2137 -4.3261 1.9840 5.7333 -0.3150 2.3952 1.0707 1.9150 1.2335 -2.2714 2.9735 1.8485 -21.0440 -0.3667 1.9678 25.5201 -0.2962 1.2254 11.9111 0.0000 -0.0000 0.0000 -87.4528 0.3379 40.2390 11.7662 -19.4530 -2.0237 -0.0000 -0.0000 16.5908 17.8853 -27.0511 -8.3493 -7.1250 0.0000 -0.0000 -7.2833 1.9611 7.0879 0.0000 -0.0000 0.0000 87.3121 -4.0827 35.5296 -16.1447 25.7164 -3.7085 0.0000 0.0000 5.2603 -10.9321 -31.0546 5.6900 7.1250 -0.0000 -0.0000 23.7657 -59.8970 -8.9436
-30.3048 17.0953 0.8800 25.8441 86.0369 24.0630 0.0000 0.0000 0.0000 -17.2552 2.3531 11.0763 0.0002 0.0997 0.2740 0.3267 6.1413 -14.7831 0.2359 -3.1257 -8.6290 0.0000 0.0000 0.0000 13.2836 -4.7451 6.2173 -0.0746 -1.7622 4.8489 -0.7705 2.2976 -15.9643 -0.4495 -4.3013 11.9259 -4.2772 2.0060 5.8476 -0.2697 2.4225 1.0715 1.9282 1.2480 -2.3363 2.8703 1.8601 -21.0355 -0.2827 1.9987 25.5711 -0.2421 1.2416 11.9274 -0.0000 0.0000 0.0000 -87.4925 0.4607 40.3090 11.8126 -19.5230 -2.0392 -0.0000 -0.0000 16.5402 18.9664 -27.1635 -8.9169 -7.1250 0.0000 -0.0000 -6.6490 1.6637 6.4975 -0.0000 0.0000 0.0000 87.2763 -4.1744 35.9130 -16.2829 25.9027 -3.7687 0.0000 0.0000 4.8193 -11.5574 -31.8085 6.1519 7.1250 -0.0000 -0.0000 23.7533 -60.7263 -9.4113
-30.3007 17.0933 0.8805 26.3406 86.0008 24.5414 0.0000 0.0000 0.0000 -17.4461 2.0630 11.3338 0.0000 0.0348 0.0957 0.3215 6.4678 -15.0076 0.2151 -2.9855 -8.2385 0.0000 0.0000 0.0000 13.2145 -4.7507 6.2745 -0.0735 -1.7485 4.8110 -0.7701 2.3466 -15.9503 -0.4761 -4.4249 12.2751 -4.3573 2.0112 5.8379 -0.2579 2.4246 1.0557 1.9849 1.2501 -2.3511 2.8355 1.8809 -21.0729 -0.2614 2.0361 25.6573 -0.2212 1.2591 11.9683 0.0000 -0.0000 0.0000 -87.5590 0.5722 40.1336 11.8479 -19.5761 -2.0510 -0.0000 -0.0000 16.6913 17.7610 -27.1969 -8.3289 -7.1250 0.0000 -0.0000 -7.3711 1.8337 7.1918 0.0000 -0.0000 0.0000 87.2315 -4.1857 35.9531 -16.2851 25.9057 -3.7697 0.0000 0.0000 4.7699 -11.4576 -31.9255 6.1177 7.1250 -0.0000 -0.0000 23.9594 -60.8080 -9.5453
-30.2979 17.0921 0.8811 26.5878 85.9690 24.8458 0.0000 0.0000 0.0000 -17.4889 2.0460 11.2978 0.0000 0.0313 0.0860 0.3095 6.5052 -14.8757 0.1986 -2.8697 -7.9163 0.0000 0.0000 0.0000 13.1616 -4.7562 6.2204 -0.0732 -1.7456 4.8030 -0.7680 2.4567 -15.9063 -0.5042 -4.5521 12.6353 -4.3887 2.0057 5.7446 -0.2730 2.4190 1.0383 1.9903 1.2469 -2.3172 2.8691 1.8858 -21.1458 -0.2813 2.0366 25.7370 -0.2331 1.2606 12.0145 -0.0000 0.0000 0.0000 -87.5947 0.6131 39.9278 11.8701 -19.6096 -2.0585 -0.0000 -0.0000 16.8326 18.3217 -26.5946 -8.4322 -7.1250 0.0000 -0.0000 -6.9791 2.3527 6.7375 -0.0000 0.0000 0.0000 87.2309 -4.1620 35.7022 -16.1924 25.7808 -3.7292 0.0000 0.0000 5.0425 -10.9249 -31.6628 5.7855 7.1250 -0.0000 -0.0000 24.2872 -60.4443 -9.4734
-30.2993 17.0945 0.8820 27.0019 85.9762 25.1999 0.0000 0.0000 0.0000 -17.4997 2.0658 11.3461 0.0000 0.0329 0.0904 0.2998 6.4443 -14.6816 0.1821 -2.7483 -7.5787 0.0000 0.0000 0.0000 13.1252 -4.7913 6.2850 -0.0727 -1.7393 4.7857 -0.7672 2.4314 -15.9027 -0.5097 -4.5765 12.7045 -4.4058 1.9934 5.8371 -0.2829 2.3963 1.0268 1.9880 1.2372 -2.3794 2.8389 1.8841 -21.0903 -0.2467 2.0365 25.7105 -0.2157 1.2624 11.9924 0.0000 -0.0000 0.0000 -87.6784 0.6114 39.6457 11.8059 -19.5129 -2.0370 -0.0000 -0.0000 16.9661 17.5298 -27.0114 -8.1638 -7.1250 0.0000 -0.0000 -7.4920 2.0597 7.2811 0.0000 -0.0000 0.0000 87.2185 -4.1955 35.6750 -16.1649 25.7437 -3.7173 0.0000 0.0000 5.1224 -10.8844 -31.7429 5.7766 7.1250 -0.0000 -0.0000 24.3986 -60.5069 -9.5566
-30.2989 17.0932 0.8816 25.6934 86.0296 23.9375 0.0000 0.0000 0.0000 -17.3760 2.0194 11.3349 0.0000 0.0203 0.0559 0.3157 6.3556 -14.8236 0.1518 -2.5105 -6.9187 0.0000 0.0000 0.0000 13.2553 -4.7882 6.2305 -0.0730 -1.7435 4.7974 -0.7673 2.3980 -15.9101 -0.5089 -4.5726 12.6935 -4.3010 1.9722 5.8276 -0.2453 2.3734 0.9724 1.9694 1.2261 -2.4262 2.7833 1.8844 -21.0190 -0.2095 2.0490 25.6963 -0.1910 1.2680 11.9718 0.0000 -0.0000 0.0000 -87.7539 0.6408 39.4845 11.7421 -19.4168 -2.0157 -0.0000 -0.0000 16.9632 18.6900 -26.9991 -8.7309 -7.1250 0.0000 -0.0000 -6.7976 1.8788 6.6183 0.0000 -0.0000 0.0000 87.1601 -4.2476 35.8106 -16.1763 25.7591 -3.7223 0.0000 0.0000 4.9797 -10.9669 -32.0544 5.8719 7.1250 -0.0000 -0.0000 24.5857 -60.8063 -9.8114
-30.2964 17.0910 0.8826 26.1412 86.0393 24.4325 0.0000 0.0000 0.0000 -17.4325 1.9387 11.3450 0.0000 0.0042 0.0115 0.3295 6.3715 -15.0302 0.1545 -2.5328 -6.9805 0.0000 0.0000 0.0000 13.2175 -4.8364 6.1808 -0.0728 -1.7407 4.7896 -0.7671 2.4275 -15.9021 -0.5355 -4.6890 13.0235 -4.3516 1.9574 5.7170 -0.2462 2.3562 0.9776 2.0021 1.2167 -2.3599 2.7846 1.8736 -21.0486 -0.2066 2.0308 25.7058 -0.1928 1.2602 11.9810 -0.0000 0.0000 0.0000 -87.7862 0.6111 39.3958 11.7316 -19.4009 -2.0122 -0.0000 -0.0000 16.9296 17.7672 -27.2531 -8.3476 -7.1250 0.0000 -0.0000 -7.3728 1.7757 7.2012 -0.0000 0.0000 0.0000 87.1432 -4.2058 35.8183 -16.1478 25.7206 -3.7099 0.0000 0.0000 5.0184 -10.9632 -32.1296 5.8821 7.1250 -0.0000 -0.0000 24.6562 -60.8728 -9.8808
-30.2943 17.0920 0.8838 29.9853 86.0054 28.2189 0.0000 0.0000 0.0000 -17.7668 1.8639 11.4220 0.0000 0.0026 0.0071 0.3288 6.4066 -15.0529 0.1784 -2.7207 -7.5022 0.0000 0.0000 0.0000 12.9115 -4.8596 6.3056 -0.0707 -1.7151 4.7188 -0.7707 2.3786 -15.9500 -0.5444 -4.7270 13.1314 -4.6603 1.9372 5.7417 -0.2879 2.3096 0.9885 2.1348 1.1962 -2.3694 2.7213 1.9243 -21.0252 -0.0321 2.0673 25.5428 -0.1125 1.2908 11.9108 0.0000 0.0000 0.0000 -87.8817 0.5945 39.1852 11.6978 -19.3499 -2.0010 -0.0000 -0.0000 17.0206 18.7683 -27.0574 -8.7869 -7.1250 0.0000 -0.0000 -6.7566 1.8059 6.5867 0.0000 0.0000 0.0000 87.1006 -4.2316 35.8224 -16.1338 25.7017 -3.7038 0.0000 0.0000 5.0948 -10.9904 -32.0167 5.8786 7.1250 -0.0000 -0.0000 24.5277 -60.7781 -9.7700
-30.2916 17.0967 0.8836 31.2747 86.0282 29.4781 0.0000 0.0000 0.0000 -17.8522 1.8314 11.4699 0.0000 0.0012 0.0034 0.3326 6.4193 -15.1164 0.1917 -2.8199 -7.7778 0.0000 0.0000 0.0000 12.8103 -4.9270 6.3688 -0.0694 -1.7000 4.6773 -0.7670 2.4335 -15.9002 -0.5530 -4.7636 13.2354 -4.7600 1.9020 5.7693 -0.2796 2.2542 0.9612 2.2023 1.1707 -2.4133 2.6929 1.9551 -20.9088 0.0051 2.1131 25.4560 -0.0881 1.3130 11.8541 0.0000 -0.0000 0.0000 -87.9395 0.6829 39.1514 11.7034 -19.3583 -2.0029 -0.0000 -0.0000 16.9146 17.7698 -27.2807 -8.3566 -7.1250 0.0000 -0.0000 -7.3738 1.7473 7.2060 0.0000 -0.0000 0.0000 87.0490 -4.3169 35.8150 -16.1427 25.7137 -3.7077 0.0000 0.0000 5.0399 -10.8165 -31.8496 5.7571 7.1250 -0.0000 -0.0000 24.5621 -60.5866 -9.6722
-30.2894 17.0992 0.8841 30.7121 85.9721 28.9641 0.0000 0.0000 0.0000 -17.8454 1.8625 11.4274 0.0000 0.0008 0.0022 0.3349 6.4953 -15.2167 0.2278 -3.0721 -8.4794 0.0000 0.0000 0.0000 12.7994 -4.9548 6.2855 -0.0702 -1.7099 4.7047 -0.7600 2.5470 -15.8035 -0.5952 -4.9390 13.7345 -4.7583 1.9099 5.7193 -0.2750 2.2661 0.9267 2.2060 1.1771 -2.4221 2.6659 1.9508 -20.8560 -0.0019 2.1204 25.4344 -0.0857 1.3128 11.8350 -0.0000 0.0000 0.0000 -87.9541 0.7412 39.1468 11.7047 -19.3604 -2.0033 -0.0000 -0.0000 16.9131 17.8168 -27.2734 -8.3778 -7.1250 0.0000 -0.0000 -7.3451 1.7469 7.1775 -0.0000 0.0000 0.0000 87.0387 -4.3376 35.7722 -16.1423 25.7132 -3.7075 0.0000 0.0000 5.0083 -10.6853 -31.7954 5.6775 7.1250 -0.0000 -0.0000 24.6512 -60.5067 -9.6626
-30.2884 17.0997 0.8843 31.5257 85.7837 29.7698 0.0000 0.0000 0.0000 -18.0189 1.9886 11.4164 0.0000 -0.0049 -0.0136 0.3217 6.5769 -15.1119 0.2678 -3.3288 -9.1955 0.0000 0.0000 0.0000 12.6110 -4.9494 6.2601 -0.0708 -1.7170 4.7242 -0.7548 2.6413 -15.7311 -0.5811 -4.8811 13.5698 -4.9073 1.9653 5.7136 -0.3151 2.3306 0.9263 2.2427 1.2106 -2.4283 2.6432 1.9146 -20.8447 -0.0214 2.0810 25.3942 -0.0960 1.2896 11.8165 0.0000 -0.0000 0.0000 -87.9823 0.7342 39.0605 11.6783 -19.3204 -1.9946 -0.0000 -0.0000 17.1597 18.0311 -27.3460 -8.5045 -7.1250 0.0000 -0.0000 -7.2244 1.6374 7.0720 0.0000 -0.0000 0.0000 87.0259 -4.3317 35.7884 -16.1576 25.7339 -3.7141 0.0000 0.0000 4.9812 -10.7412 -32.0144 5.7426 7.1250 -0.0000 -0.0000 24.7854 -60.7164 -9.8435
-30.2884 17.0967 0.8845 31.7785 85.7290 30.0688 0.0000 0.0000 0.0000 -17.9583 2.2781 11.2046 0.0000 0.0284 0.0779 0.3191 6.3289 -14.8473 0.2429 -3.1717 -8.7571 0.0000 0.0000 0.0000 12.5547 -4.9363 6.2075 -0.0707 -1.7157 4.7205 -0.7532 2.7033 -15.7022 -0.5495 -4.7487 13.1933 -4.9664 1.9896 5.6779 -0.3203 2.3593 0.8826 2.2681 1.2266 -2.4578 2.6173 1.8724 -20.7611 -0.0165 2.0315 25.3569 -0.0989 1.2659 11.7844 -0.0000 0.0000 0.0000 -88.0200 0.8138 39.0350 11.6904 -19.3387 -1.9986 -0.0000 -0.0000 17.3356 18.1944 -27.3080 -8.5749 -7.1250 0.0000 -0.0000 -7.1235 1.6485 6.9702 -0.0000 0.0000 0.0000 87.0037 -4.4118 35.7647 -16.1739 25.7558 -3.7212 0.0000 0.0000 5.0124 -10.6691 -31.9550 5.6940 7.1250 -0.0000 -0.0000 24.8080 -60.6460 -9.8114
